<svg width="480" height="1237.77" xmlns="http://www.w3.org/2000/svg" xmlns:xlink="http://www.w3.org/1999/xlink"><defs><symbol viewBox="0 0 20 20" id="arrow-left">
    <path d="M19.3,10H2" fill="none" stroke-linecap="round" />
    <path d="M9.1,17.1L2,10l7.1-7.1" fill="none" />
</symbol><symbol viewBox="0 0 20 20" id="arrow-right">
    <path fill="none" d="M0.7,10H18" stroke-linecap="round" />
    <path fill="none" d="M10.9,2.9L18,10l-7.1,7.1" />
</symbol><symbol viewBox="0 0 20 20" fill="none" stroke="currentColor" id="close">
    <path d="M3.2 16.8 16.8 3.2M3.2 3.2l13.6 13.6" vector-effect="non-scaling-stroke" />
</symbol><symbol viewBox="0 0 430.3 346.9" id="diploma"><path d="m14.7 248.6c-4.5 2.1-10.2 5-14.7 7 14.7 34.2 36.6 65.7 63.6 91.3 3.4-3.5 8.1-7.8 11.6-11.4-24.4-25.5-45.1-55.1-60.5-86.9zm401-150.3c4.5-2.1 10.2-5 14.7-7-14.7-34.2-36.7-65.7-63.7-91.3-3.4 3.5-8.1 7.8-11.6 11.4 24.5 25.4 45.1 55.1 60.6 86.9zm-165.1 69.5c-.8-5.1-2.8-10.2-6-14.7-8.9-12.7-24.5-17.9-38.7-14.2l-8.3-11.9c51.3-36.6 99.3-77.5 141.4-120.8 32.2 30.5 58.4 68.1 75.9 108.9-43.5 19.3-86.8 42.6-128.6 68.9zm-235.2 63.9c55.2-24.5 110.2-55.4 162.2-90.8l8.3 11.9c-8.5 12-9 28.5-.1 41.2 3.4 4.9 7.7 8.6 12.6 11.2l-5.2 44.2c-36.5 28.6-70.8 59.2-101.9 91.2-32.2-30.5-58.4-68.1-75.9-108.9zm234.6-49.4 85 38.6-38.3 7.7-1.3 24-56.6-51.9c5.7-5.1 9.5-11.5 11.2-18.4zm-38.5 26.9c7.1.7 14.3-.6 20.9-4.2l22.3 65.5-28.3-18.4-22 17.5zm-9.8-55c10.7-7.5 25.4-4.8 32.9 5.9s4.8 25.4-5.9 32.9-25.4 4.8-32.9-5.9c-7.4-10.7-4.8-25.5 5.9-32.9z" fill="currentColor" /></symbol><symbol viewBox="0 0 290.87 290.87" id="logo"><path d="m279.44 88.82c-7.33-17.32-17.81-32.87-31.16-46.23-13.35-13.35-28.91-23.84-46.23-31.16-17.94-7.58-36.98-11.43-56.61-11.43s-38.68 3.85-56.61 11.43c-17.32 7.33-32.87 17.81-46.23 31.16-13.35 13.35-23.84 28.91-31.16 46.23-7.59 17.94-11.44 36.99-11.44 56.62s3.85 38.68 11.43 56.61c7.33 17.32 17.81 32.87 31.16 46.23 13.35 13.35 28.91 23.84 46.23 31.16 17.94 7.59 36.98 11.43 56.61 11.43s38.68-3.85 56.61-11.43c17.32-7.33 32.87-17.81 46.23-31.16 13.35-13.35 23.84-28.91 31.16-46.23 7.59-17.94 11.43-36.98 11.43-56.61s-3.85-38.68-11.43-56.61zm-19.43 105.01c-6.18 14.61-15.01 27.75-26.22 39.07-1.2-5.35-2.85-10.6-5.01-15.69-4.64-10.98-11.29-20.84-19.75-29.3s-18.32-15.11-29.3-19.75c-11.37-4.81-23.45-7.25-35.89-7.25h-78.45v21.1h78.45c18.99 0 36.84 7.4 50.27 20.82 12.38 12.38 19.61 28.52 20.67 45.84-6.58 4.43-13.58 8.22-20.95 11.34-15.32 6.48-31.6 9.77-48.39 9.77s-33.07-3.29-48.39-9.77c-2.44-1.03-4.82-2.16-7.18-3.34v-53.2h-21.1v39.82c-3.92-3.08-7.69-6.37-11.25-9.94-11.42-11.42-20.39-24.72-26.65-39.53-6.48-15.32-9.77-31.6-9.77-48.39s3.29-33.07 9.77-48.39c6.26-14.8 15.23-28.1 26.65-39.53 3.56-3.56 7.33-6.86 11.25-9.94v35.02h21.1v-48.38c2.36-1.18 4.74-2.31 7.18-3.34 15.32-6.48 31.6-9.77 48.39-9.77s33.07 3.29 48.39 9.77c7.37 3.12 14.37 6.91 20.95 11.34-1.06 17.32-8.29 33.47-20.67 45.84-13.43 13.43-31.28 20.82-50.27 20.82h-78.45v21.1h78.45c12.44 0 24.52-2.44 35.89-7.25 10.98-4.64 20.84-11.29 29.3-19.75s15.11-18.32 19.75-29.3c2.16-5.1 3.81-10.34 5.01-15.69 11.21 11.32 20.04 24.46 26.22 39.07 6.48 15.32 9.77 31.6 9.77 48.39s-3.29 33.07-9.77 48.39z" fill="currentColor" /></symbol><symbol viewBox="0 0 480 480" id="shapes">
    <g fill="#fff">
        <path d="m447.5 231.6c-109.1 0-197.6-88.5-197.6-197.6v-385.8h-58.6v385.8.4c.1 141.4 114.8 255.9 256.2 255.8h384.1v-58.6z" />
        <path d="m34.4 189.7h-386.1v58.6h386.1c109.1 0 197.6 88.5 197.6 197.6v385.8h58.6v-385.8c0-.1 0-.3 0-.4-.1-141.4-114.8-255.9-256.2-255.8z" />
    </g>
</symbol></defs></svg>