<svg xmlns="http://www.w3.org/2000/svg" version="1.1" xmlns:xlink="http://www.w3.org/1999/xlink" xmlns:svgjs="http://svgjs.dev/svgjs" width="294.104" height="294.104"><svg id="SvgjsSvg1022" data-name="Groupe 61" xmlns="http://www.w3.org/2000/svg" width="294.104" height="294.104" viewBox="0 0 294.104 294.104">
  <g id="SvgjsG1021" data-name="Groupe 51" transform="translate(63.35 38.195)">
    <path id="SvgjsPath1020" data-name="Tracé 2" d="M540.806,482.687H461.49V461.352h79.316A71.889,71.889,0,0,0,612.7,389.466h21.332a93.153,93.153,0,0,1-93.221,93.221Z" transform="translate(-461.49 -389.466)"></path>
  </g>
  <g id="SvgjsG1019" data-name="Groupe 52" transform="translate(63.35 162.689)">
    <path id="SvgjsPath1018" data-name="Tracé 3" d="M634.027,541.922H612.7a71.889,71.889,0,0,0-71.889-71.886H461.49V448.7h79.316a93.152,93.152,0,0,1,93.221,93.221Z" transform="translate(-461.49 -448.701)"></path>
  </g>
  <g id="SvgjsG1017" data-name="Groupe 53" transform="translate(135.146 26.876)">
    <rect id="SvgjsRect1016" data-name="Rectangle 21" width="21.333" height="56.641"></rect>
  </g>
  <g id="SvgjsG1015" data-name="Groupe 54" transform="translate(135.146 205.729)">
    <rect id="SvgjsRect1014" data-name="Rectangle 22" width="21.333" height="62.955"></rect>
  </g>
  <g id="SvgjsG1013" data-name="Groupe 55" transform="translate(0 0)">
    <path id="SvgjsPath1012" data-name="Tracé 4" d="M577.083,665.4a146.631,146.631,0,1,1,57.245-11.561A146.141,146.141,0,0,1,577.083,665.4Zm0-272.772a125.3,125.3,0,1,0,48.934,9.876A124.928,124.928,0,0,0,577.083,392.625Z" transform="translate(-430.031 -371.293)"></path>
  </g>
</svg><style>@media (prefers-color-scheme: light) { :root { filter: none; } }
@media (prefers-color-scheme: dark) { :root { filter: contrast(0.3846153846153846) brightness(4.5); } }
</style></svg>