<svg viewBox="0 0 430.3 346.9" xmlns="http://www.w3.org/2000/svg"><path d="m14.7 248.6c-4.5 2.1-10.2 5-14.7 7 14.7 34.2 36.6 65.7 63.6 91.3 3.4-3.5 8.1-7.8 11.6-11.4-24.4-25.5-45.1-55.1-60.5-86.9zm401-150.3c4.5-2.1 10.2-5 14.7-7-14.7-34.2-36.7-65.7-63.7-91.3-3.4 3.5-8.1 7.8-11.6 11.4 24.5 25.4 45.1 55.1 60.6 86.9zm-165.1 69.5c-.8-5.1-2.8-10.2-6-14.7-8.9-12.7-24.5-17.9-38.7-14.2l-8.3-11.9c51.3-36.6 99.3-77.5 141.4-120.8 32.2 30.5 58.4 68.1 75.9 108.9-43.5 19.3-86.8 42.6-128.6 68.9zm-235.2 63.9c55.2-24.5 110.2-55.4 162.2-90.8l8.3 11.9c-8.5 12-9 28.5-.1 41.2 3.4 4.9 7.7 8.6 12.6 11.2l-5.2 44.2c-36.5 28.6-70.8 59.2-101.9 91.2-32.2-30.5-58.4-68.1-75.9-108.9zm234.6-49.4 85 38.6-38.3 7.7-1.3 24-56.6-51.9c5.7-5.1 9.5-11.5 11.2-18.4zm-38.5 26.9c7.1.7 14.3-.6 20.9-4.2l22.3 65.5-28.3-18.4-22 17.5zm-9.8-55c10.7-7.5 25.4-4.8 32.9 5.9s4.8 25.4-5.9 32.9-25.4 4.8-32.9-5.9c-7.4-10.7-4.8-25.5 5.9-32.9z" fill="currentColor"/></svg>