<svg viewBox="0 0 290.87 290.87" xmlns="http://www.w3.org/2000/svg"><path d="m279.44 88.82c-7.33-17.32-17.81-32.87-31.16-46.23-13.35-13.35-28.91-23.84-46.23-31.16-17.94-7.58-36.98-11.43-56.61-11.43s-38.68 3.85-56.61 11.43c-17.32 7.33-32.87 17.81-46.23 31.16-13.35 13.35-23.84 28.91-31.16 46.23-7.59 17.94-11.44 36.99-11.44 56.62s3.85 38.68 11.43 56.61c7.33 17.32 17.81 32.87 31.16 46.23 13.35 13.35 28.91 23.84 46.23 31.16 17.94 7.59 36.98 11.43 56.61 11.43s38.68-3.85 56.61-11.43c17.32-7.33 32.87-17.81 46.23-31.16 13.35-13.35 23.84-28.91 31.16-46.23 7.59-17.94 11.43-36.98 11.43-56.61s-3.85-38.68-11.43-56.61zm-19.43 105.01c-6.18 14.61-15.01 27.75-26.22 39.07-1.2-5.35-2.85-10.6-5.01-15.69-4.64-10.98-11.29-20.84-19.75-29.3s-18.32-15.11-29.3-19.75c-11.37-4.81-23.45-7.25-35.89-7.25h-78.45v21.1h78.45c18.99 0 36.84 7.4 50.27 20.82 12.38 12.38 19.61 28.52 20.67 45.84-6.58 4.43-13.58 8.22-20.95 11.34-15.32 6.48-31.6 9.77-48.39 9.77s-33.07-3.29-48.39-9.77c-2.44-1.03-4.82-2.16-7.18-3.34v-53.2h-21.1v39.82c-3.92-3.08-7.69-6.37-11.25-9.94-11.42-11.42-20.39-24.72-26.65-39.53-6.48-15.32-9.77-31.6-9.77-48.39s3.29-33.07 9.77-48.39c6.26-14.8 15.23-28.1 26.65-39.53 3.56-3.56 7.33-6.86 11.25-9.94v35.02h21.1v-48.38c2.36-1.18 4.74-2.31 7.18-3.34 15.32-6.48 31.6-9.77 48.39-9.77s33.07 3.29 48.39 9.77c7.37 3.12 14.37 6.91 20.95 11.34-1.06 17.32-8.29 33.47-20.67 45.84-13.43 13.43-31.28 20.82-50.27 20.82h-78.45v21.1h78.45c12.44 0 24.52-2.44 35.89-7.25 10.98-4.64 20.84-11.29 29.3-19.75s15.11-18.32 19.75-29.3c2.16-5.1 3.81-10.34 5.01-15.69 11.21 11.32 20.04 24.46 26.22 39.07 6.48 15.32 9.77 31.6 9.77 48.39s-3.29 33.07-9.77 48.39z" fill="currentColor"/></svg>